<?xml version="1.0" encoding="UTF-8" standalone="no"?>
<svg width="276px" height="46px" viewBox="0 0 276 46" version="1.1" xmlns="http://www.w3.org/2000/svg" xmlns:xlink="http://www.w3.org/1999/xlink">
    <g stroke="none" stroke-width="1" fill="none" fill-rule="evenodd">
        <path d="M23.085,-0.007 C10.378,-0.007 0.079,10.295 0.079,22.999 C0.079,35.708 10.378,46.007 23.085,46.007 C35.792,46.007 46.093,35.708 46.093,22.999 C46.093,10.295 35.792,-0.007 23.085,-0.007 M23.088,34.162 C16.909,34.162 11.9,29.154 11.9,22.974 C11.9,16.795 16.909,11.786 23.088,11.786 C29.265,11.786 34.277,16.795 34.277,22.974 C34.277,29.154 29.265,34.162 23.088,34.162" fill="#D9D9D9"></path>
        <path d="M46.099,22.22 L46.088,21.969 C46.079,21.795 46.071,21.623 46.061,21.451 C46.053,21.354 46.045,21.256 46.037,21.159 C46.026,21.002 46.012,20.845 45.997,20.688 C45.986,20.587 45.976,20.486 45.963,20.386 C45.946,20.232 45.927,20.079 45.908,19.928 C45.894,19.826 45.881,19.727 45.866,19.628 C45.843,19.472 45.819,19.317 45.793,19.161 C45.776,19.069 45.763,18.976 45.745,18.884 C45.714,18.713 45.68,18.542 45.645,18.37 L45.601,18.149 C45.549,17.907 45.493,17.661 45.433,17.421 L45.425,17.39 C45.369,17.161 45.307,16.933 45.242,16.706 L45.176,16.478 C45.128,16.318 45.079,16.156 45.029,15.997 L44.942,15.734 C44.894,15.588 44.844,15.442 44.792,15.297 C44.76,15.205 44.726,15.116 44.694,15.026 C44.642,14.884 44.587,14.743 44.532,14.602 L44.426,14.335 C44.369,14.191 44.308,14.051 44.247,13.91 L44.14,13.659 C44.07,13.503 43.999,13.349 43.927,13.196 L43.834,12.997 C43.727,12.78 43.621,12.562 43.509,12.35 L43.45,12.24 C43.356,12.065 43.262,11.889 43.164,11.716 L43.026,11.479 C42.951,11.35 42.877,11.22 42.799,11.092 L42.747,11.001 L42.744,11.005 C41.15,8.396 39.052,6.129 36.581,4.341 C34.025,6.668 32.417,10.024 32.417,13.755 C32.417,15.603 32.804,17.365 33.511,18.948 C33.997,20.199 34.256,21.568 34.256,22.991 C34.256,29.155 29.26,34.15 23.097,34.15 C16.935,34.15 11.938,29.155 11.938,22.991 C11.938,21.568 12.198,20.199 12.684,18.948 C13.39,17.365 13.777,15.603 13.777,13.755 C13.777,10.024 12.17,6.668 9.612,4.341 C7.142,6.129 5.045,8.396 3.45,11.005 L3.449,11.001 L3.395,11.092 C3.318,11.22 3.243,11.35 3.168,11.479 L3.031,11.716 C2.933,11.889 2.838,12.065 2.744,12.24 L2.686,12.35 C2.574,12.562 2.466,12.78 2.362,12.997 L2.268,13.196 C2.194,13.349 2.124,13.503 2.054,13.659 L1.947,13.91 C1.887,14.051 1.826,14.191 1.768,14.335 L1.663,14.602 C1.607,14.743 1.552,14.884 1.502,15.026 C1.467,15.116 1.435,15.205 1.402,15.297 C1.351,15.442 1.302,15.588 1.253,15.734 L1.166,15.997 C1.115,16.156 1.067,16.318 1.02,16.478 L0.952,16.706 C0.887,16.933 0.827,17.161 0.769,17.39 L0.762,17.421 C0.701,17.661 0.645,17.907 0.593,18.149 L0.548,18.37 C0.514,18.542 0.481,18.713 0.45,18.884 C0.433,18.976 0.417,19.069 0.402,19.161 C0.376,19.317 0.351,19.472 0.329,19.628 C0.313,19.727 0.3,19.826 0.287,19.928 C0.267,20.079 0.248,20.232 0.231,20.386 C0.219,20.486 0.208,20.587 0.198,20.688 C0.182,20.845 0.168,21.002 0.157,21.159 C0.149,21.256 0.14,21.354 0.134,21.451 C0.123,21.623 0.115,21.795 0.107,21.969 L0.095,22.22 C0.087,22.475 0.082,22.732 0.082,22.991 C0.082,23.255 0.088,23.517 0.097,23.776 L0.105,23.968 C0.126,24.496 0.166,25.017 0.223,25.535 L0.24,25.685 C1.573,37.126 11.297,46.007 23.097,46.007 C34.898,46.007 44.621,37.126 45.955,25.685 L45.972,25.535 C46.029,25.017 46.069,24.496 46.09,23.968 L46.097,23.776 C46.107,23.517 46.112,23.255 46.112,22.991 C46.112,22.732 46.108,22.475 46.099,22.22" fill="#E5007E"></path>
        <path d="M33.666,19.373 C33.667,19.375 33.667,19.377 33.668,19.379 C33.667,19.377 33.667,19.375 33.666,19.373" fill="#7FCEF0"></path>
        <path d="M36.581,4.341 C36.577,4.346 36.572,4.35 36.567,4.355 C34.019,6.681 32.417,10.031 32.417,13.755 C32.417,15.603 32.804,17.365 33.511,18.948 C33.577,19.115 33.609,19.203 33.666,19.373 C33.667,19.375 33.667,19.377 33.668,19.379 C35.024,21.807 35.811,24.698 35.811,27.677 C35.811,35.558 30.404,42.177 23.097,44.026 C24.425,44.362 25.814,44.54 27.246,44.54 C30.197,44.54 32.968,43.778 35.382,42.445 C31.869,44.669 27.717,45.976 23.258,46.006 C34.986,45.926 44.627,37.074 45.955,25.685 L45.972,25.535 C46.029,25.017 46.069,24.496 46.09,23.968 L46.097,23.776 C46.107,23.517 46.112,23.255 46.112,22.991 C46.112,22.732 46.108,22.475 46.099,22.22 L46.088,21.969 C46.079,21.795 46.071,21.623 46.061,21.451 C46.053,21.354 46.045,21.256 46.037,21.159 C46.026,21.002 46.012,20.845 45.997,20.688 C45.986,20.587 45.976,20.486 45.963,20.386 C45.946,20.232 45.927,20.079 45.908,19.928 C45.894,19.826 45.881,19.727 45.866,19.628 C45.843,19.472 45.819,19.317 45.793,19.161 C45.776,19.069 45.763,18.976 45.745,18.884 C45.714,18.713 45.68,18.542 45.645,18.37 L45.601,18.149 C45.549,17.907 45.493,17.661 45.433,17.421 L45.425,17.39 C45.369,17.161 45.307,16.933 45.242,16.706 L45.176,16.478 C45.128,16.318 45.079,16.156 45.029,15.997 L44.942,15.734 C44.894,15.588 44.844,15.442 44.792,15.297 C44.76,15.205 44.726,15.116 44.694,15.026 C44.642,14.884 44.587,14.743 44.532,14.602 L44.426,14.335 C44.369,14.191 44.308,14.051 44.247,13.91 L44.14,13.659 C44.07,13.503 43.999,13.349 43.927,13.196 L43.834,12.997 C43.727,12.78 43.621,12.562 43.509,12.35 L43.45,12.24 C43.356,12.065 43.262,11.889 43.164,11.716 L43.026,11.479 C42.951,11.35 42.877,11.22 42.799,11.092 L42.747,11.001 L42.744,11.005 C41.15,8.396 39.052,6.129 36.581,4.341" fill="#720077"></path>
        <path d="M12.549,19.315 C12.54,19.34 12.532,19.364 12.524,19.389 C12.524,19.388 12.525,19.387 12.525,19.385 C12.534,19.361 12.541,19.337 12.549,19.315 M9.613,4.341 C9.613,4.342 9.612,4.342 9.612,4.342 C9.614,4.343 9.615,4.344 9.616,4.346 C9.617,4.345 9.616,4.346 9.617,4.345 C9.616,4.344 9.614,4.343 9.613,4.341" fill="#7FCEF0"></path>
        <path d="M3.659,10.67 C3.588,10.781 3.519,10.893 3.45,11.005 L3.45,11.004 L3.45,11.005 C3.519,10.893 3.588,10.781 3.659,10.67 M9.617,4.345 C9.616,4.346 9.617,4.345 9.616,4.346 C12.172,6.672 13.777,10.026 13.777,13.755 C13.777,10.026 12.172,6.672 9.617,4.345" fill="#6CAFCC"></path>
        <path d="M9.612,4.342 C7.248,6.053 5.226,8.202 3.659,10.67 C3.588,10.781 3.519,10.893 3.45,11.005 L3.45,11.004 L3.449,11.001 L3.395,11.092 C3.318,11.22 3.244,11.35 3.168,11.479 L3.031,11.716 C2.933,11.889 2.838,12.065 2.744,12.24 L2.686,12.35 C2.574,12.562 2.467,12.78 2.362,12.997 L2.268,13.196 C2.194,13.349 2.124,13.503 2.054,13.659 L1.947,13.91 C1.943,13.919 1.939,13.927 1.936,13.936 C1.879,14.068 1.823,14.2 1.768,14.335 L1.663,14.602 C1.607,14.743 1.552,14.884 1.502,15.026 C1.468,15.116 1.435,15.205 1.402,15.297 C1.351,15.442 1.302,15.588 1.253,15.734 L1.166,15.997 C1.115,16.156 1.067,16.318 1.02,16.478 L0.952,16.706 C0.888,16.933 0.827,17.161 0.769,17.39 L0.762,17.421 C0.701,17.661 0.645,17.907 0.593,18.149 L0.548,18.37 C0.514,18.542 0.481,18.713 0.45,18.884 C0.433,18.976 0.418,19.069 0.402,19.161 C0.376,19.317 0.351,19.472 0.329,19.628 C0.313,19.727 0.3,19.826 0.287,19.928 C0.267,20.079 0.248,20.232 0.231,20.386 C0.219,20.486 0.208,20.587 0.198,20.688 C0.197,20.698 0.196,20.707 0.195,20.717 C0.18,20.864 0.167,21.012 0.157,21.159 C0.149,21.256 0.141,21.354 0.134,21.451 C0.123,21.623 0.115,21.795 0.107,21.969 L0.095,22.22 C0.087,22.475 0.082,22.732 0.082,22.991 C0.082,23.255 0.088,23.517 0.097,23.776 L0.105,23.968 C0.126,24.496 0.166,25.017 0.223,25.535 L0.24,25.685 C1.567,37.074 11.209,45.926 22.936,46.006 C18.479,45.976 14.326,44.669 10.813,42.445 C13.226,43.778 15.997,44.54 18.949,44.54 C20.381,44.54 21.77,44.362 23.097,44.026 C15.791,42.177 10.384,35.558 10.384,27.677 C10.384,24.7 11.168,21.816 12.524,19.389 C12.532,19.364 12.54,19.34 12.549,19.315 C12.593,19.183 12.627,19.093 12.684,18.948 C13.39,17.365 13.777,15.603 13.777,13.755 C13.777,10.026 12.172,6.672 9.616,4.346 C9.615,4.344 9.614,4.343 9.612,4.342" fill="#720077"></path>
        <path d="M35.382,42.445 C32.968,43.778 30.197,44.54 27.246,44.54 C25.814,44.54 24.425,44.362 23.097,44.026 C21.77,44.362 20.381,44.54 18.949,44.54 C15.997,44.54 13.226,43.778 10.813,42.445 C14.326,44.669 18.479,45.976 22.936,46.006 L22.941,46.006 C22.958,46.007 22.974,46.007 22.991,46.007 L22.992,46.007 L23.039,46.007 L23.05,46.007 L23.097,46.007 L23.145,46.007 L23.155,46.007 L23.203,46.007 L23.204,46.007 C23.22,46.007 23.237,46.007 23.253,46.006 L23.258,46.006 C27.717,45.976 31.869,44.669 35.382,42.445" fill="#390070"></path>
        <path d="M55.568,24.009 C55.568,18.395 59.744,14.886 64.341,14.886 C66.657,14.886 68.868,15.904 70.166,17.517 L70.166,15.237 L73.922,15.237 L73.922,32.783 L70.166,32.783 L70.166,30.361 C68.834,32.081 66.623,33.134 64.306,33.134 C59.852,33.134 55.568,29.59 55.568,24.009 L55.568,24.009 Z M70.378,23.975 C70.378,20.851 68.027,18.29 64.833,18.29 C61.711,18.29 59.288,20.781 59.288,23.975 C59.288,27.168 61.711,29.694 64.833,29.694 C68.027,29.694 70.378,27.133 70.378,23.975 L70.378,23.975 Z" fill="#941B80"></path>
        <path d="M80.871,30.397 L80.871,32.783 L77.187,32.783 L77.187,7.165 L80.907,7.165 L80.907,17.588 C82.206,15.939 84.381,14.886 86.732,14.886 C91.328,14.886 95.469,18.395 95.469,24.009 C95.469,29.59 91.224,33.134 86.765,33.134 C84.416,33.134 82.17,32.116 80.871,30.397 L80.871,30.397 Z M91.749,23.975 C91.749,20.781 89.328,18.29 86.205,18.29 C83.048,18.29 80.695,20.851 80.695,23.975 C80.695,27.133 83.048,29.694 86.205,29.694 C89.328,29.694 91.749,27.168 91.749,23.975 L91.749,23.975 Z" fill="#941B80"></path>
        <path d="M97.611,24.009 C97.611,18.395 101.786,14.886 106.386,14.886 C108.702,14.886 110.911,15.904 112.21,17.517 L112.21,15.237 L115.964,15.237 L115.964,32.783 L112.21,32.783 L112.21,30.361 C110.877,32.081 108.666,33.134 106.349,33.134 C101.893,33.134 97.611,29.59 97.611,24.009 L97.611,24.009 Z M112.422,23.975 C112.422,20.851 110.07,18.29 106.877,18.29 C103.754,18.29 101.332,20.781 101.332,23.975 C101.332,27.168 103.754,29.694 106.877,29.694 C110.07,29.694 112.422,27.133 112.422,23.975 L112.422,23.975 Z" fill="#941B80"></path>
        <path d="M119.406,15.237 L123.126,15.237 L123.126,17.517 C124.317,15.904 126.214,14.886 128.531,14.886 C132.952,14.886 135.654,17.763 135.654,22.536 L135.654,32.783 L131.863,32.783 L131.863,22.852 C131.863,19.975 130.424,18.15 127.617,18.15 C125.09,18.15 123.16,20.045 123.16,23.132 L123.16,32.783 L119.406,32.783 L119.406,15.237" fill="#941B80"></path>
        <path d="M138.252,24.08 C138.252,18.922 142.218,14.886 147.376,14.886 C152.571,14.886 156.396,18.641 156.396,23.834 L156.396,25.308 L141.868,25.308 C142.359,28.01 144.463,29.8 147.517,29.8 C149.902,29.8 151.728,28.537 152.641,26.641 L155.728,28.361 C154.183,31.238 151.411,33.134 147.517,33.134 C141.973,33.134 138.252,29.168 138.252,24.08 L138.252,24.08 Z M142.044,22.115 L152.571,22.115 C152.01,19.588 150.078,18.185 147.376,18.185 C144.779,18.185 142.744,19.799 142.044,22.115 L142.044,22.115 Z" fill="#941B80"></path>
        <path d="M158.468,24.009 C158.468,18.395 162.643,14.886 167.24,14.886 C169.557,14.886 171.732,15.939 173.066,17.623 L173.066,15.237 L176.82,15.237 L176.82,32.362 C176.82,37.52 173.592,41.31 167.977,41.31 C163.59,41.31 160.608,39.205 159.276,36.362 L162.748,34.713 C163.627,36.643 165.31,37.871 167.977,37.871 C171.17,37.871 173.099,35.52 173.099,32.502 L173.099,30.291 C171.767,32.046 169.521,33.134 167.205,33.134 C162.748,33.134 158.468,29.59 158.468,24.009 L158.468,24.009 Z M173.275,23.975 C173.275,20.851 170.923,18.29 167.731,18.29 C164.608,18.29 162.186,20.781 162.186,23.975 C162.186,27.168 164.608,29.694 167.731,29.694 C170.923,29.694 173.275,27.133 173.275,23.975 L173.275,23.975 Z" fill="#941B80"></path>
        <path d="M179.49,24.009 C179.49,18.395 183.666,14.886 188.263,14.886 C190.58,14.886 192.79,15.904 194.089,17.517 L194.089,15.237 L197.845,15.237 L197.845,32.783 L194.089,32.783 L194.089,30.361 C192.754,32.081 190.543,33.134 188.229,33.134 C183.77,33.134 179.49,29.59 179.49,24.009 L179.49,24.009 Z M194.298,23.975 C194.298,20.851 191.947,18.29 188.754,18.29 C185.63,18.29 183.209,20.781 183.209,23.975 C183.209,27.168 185.63,29.694 188.754,29.694 C191.947,29.694 194.298,27.133 194.298,23.975 L194.298,23.975 Z" fill="#941B80"></path>
        <path d="M201.285,15.237 L205.004,15.237 L205.004,17.517 C206.197,15.904 208.091,14.886 210.407,14.886 C214.829,14.886 217.532,17.763 217.532,22.536 L217.532,32.783 L213.741,32.783 L213.741,22.852 C213.741,19.975 212.303,18.15 209.494,18.15 C206.968,18.15 205.039,20.045 205.039,23.132 L205.039,32.783 L201.285,32.783 L201.285,15.237" fill="#941B80"></path>
        <path d="M222.41,16.025 L224.474,16.025 C226.689,16.025 228.28,17.616 228.28,19.7 C228.28,21.795 226.629,23.375 224.495,23.375 L222.41,23.375 L222.41,16.025 L222.41,16.025 Z M222.994,16.559 L222.994,22.832 L224.455,22.832 C226.297,22.832 227.686,21.482 227.686,19.7 C227.686,17.918 226.357,16.559 224.434,16.559 L222.994,16.559 L222.994,16.559 Z" fill="#9C9B9B"></path>
        <path d="M229.566,16.025 L230.14,16.025 L230.14,23.375 L229.566,23.375 L229.566,16.025 Z" fill="#9C9B9B"></path>
        <path d="M231.428,19.7 C231.428,17.616 233.07,15.924 235.265,15.924 C236.675,15.924 237.852,16.649 238.507,17.777 L238.004,18.069 C237.47,17.092 236.483,16.468 235.265,16.468 C233.362,16.468 232.022,17.928 232.022,19.7 C232.022,21.472 233.362,22.922 235.224,22.922 C237.067,22.922 238.195,21.694 238.355,20.083 L235.174,20.083 L235.174,19.539 L238.94,19.539 L238.94,19.69 C238.94,21.734 237.561,23.476 235.224,23.476 C233.07,23.476 231.428,21.784 231.428,19.7" fill="#9C9B9B"></path>
        <path d="M240.206,16.025 L240.781,16.025 L240.781,23.375 L240.206,23.375 L240.206,16.025 Z" fill="#9C9B9B"></path>
        <path d="M244.314,16.559 L242.018,16.559 L242.018,16.025 L247.194,16.025 L247.194,16.559 L244.898,16.559 L244.898,23.375 L244.314,23.375 L244.314,16.559" fill="#9C9B9B"></path>
        <path d="M249.396,16.025 L250.021,16.025 L252.85,23.375 L252.236,23.375 L251.441,21.321 L247.967,21.321 L247.182,23.375 L246.567,23.375 L249.396,16.025 L249.396,16.025 Z M248.178,20.767 L251.229,20.767 L249.709,16.8 L248.178,20.767 L248.178,20.767 Z" fill="#9C9B9B"></path>
        <path d="M253.875,16.025 L254.46,16.025 L254.46,22.821 L257.954,22.821 L257.954,23.375 L253.875,23.375 L253.875,16.025" fill="#9C9B9B"></path>
        <path d="M221.638,31.343 L222.122,30.97 C222.585,31.645 223.26,32.018 224.085,32.018 C225.072,32.018 225.848,31.403 225.848,30.467 C225.848,29.47 224.932,29.158 223.974,28.846 C222.958,28.514 221.911,28.132 221.911,26.862 C221.911,25.786 222.867,25 224.095,25 C225.083,25 225.777,25.393 226.261,26.007 L225.807,26.359 C225.424,25.815 224.871,25.513 224.095,25.513 C223.199,25.513 222.505,26.067 222.505,26.862 C222.505,27.809 223.391,28.081 224.337,28.393 C225.364,28.735 226.432,29.148 226.432,30.467 C226.432,31.615 225.464,32.551 224.085,32.551 C222.998,32.551 222.183,32.078 221.638,31.343" fill="#9C9B9B"></path>
        <path d="M227.376,28.776 C227.376,26.692 229.068,25 231.152,25 C233.237,25 234.927,26.692 234.927,28.776 C234.927,30.86 233.237,32.551 231.152,32.551 C229.068,32.551 227.376,30.86 227.376,28.776 L227.376,28.776 Z M234.324,28.776 C234.324,27.004 232.944,25.554 231.152,25.554 C229.36,25.554 227.971,27.004 227.971,28.776 C227.971,30.548 229.36,31.998 231.152,31.998 C232.944,31.998 234.324,30.548 234.324,28.776 L234.324,28.776 Z" fill="#9C9B9B"></path>
        <path d="M236.103,25.1 L236.687,25.1 L236.687,31.897 L240.182,31.897 L240.182,32.451 L236.103,32.451 L236.103,25.1" fill="#9C9B9B"></path>
        <path d="M241.036,30.055 L241.036,25.1 L241.62,25.1 L241.62,30.084 C241.62,31.142 242.455,31.998 243.533,31.998 C244.61,31.998 245.456,31.142 245.456,30.075 L245.456,25.1 L246.04,25.1 L246.04,30.055 C246.04,31.454 244.962,32.551 243.533,32.551 C242.103,32.551 241.036,31.454 241.036,30.055" fill="#9C9B9B"></path>
        <path d="M249.441,25.634 L247.145,25.634 L247.145,25.1 L252.321,25.1 L252.321,25.634 L250.025,25.634 L250.025,32.451 L249.441,32.451 L249.441,25.634" fill="#9C9B9B"></path>
        <path d="M253.557,25.1 L254.13,25.1 L254.13,32.45 L253.557,32.45 L253.557,25.1 Z" fill="#9C9B9B"></path>
        <path d="M255.42,28.776 C255.42,26.692 257.111,25 259.195,25 C261.279,25 262.971,26.692 262.971,28.776 C262.971,30.86 261.279,32.551 259.195,32.551 C257.111,32.551 255.42,30.86 255.42,28.776 L255.42,28.776 Z M262.367,28.776 C262.367,27.004 260.988,25.554 259.195,25.554 C257.403,25.554 256.014,27.004 256.014,28.776 C256.014,30.548 257.403,31.998 259.195,31.998 C260.988,31.998 262.367,30.548 262.367,28.776 L262.367,28.776 Z" fill="#9C9B9B"></path>
        <path d="M264.147,25.1 L264.792,25.1 L269.523,31.545 L269.523,25.1 L270.107,25.1 L270.107,32.451 L269.484,32.451 L264.731,25.976 L264.731,32.451 L264.147,32.451 L264.147,25.1" fill="#9C9B9B"></path>
        <path d="M271.062,31.343 L271.545,30.97 C272.008,31.645 272.683,32.018 273.508,32.018 C274.495,32.018 275.271,31.403 275.271,30.467 C275.271,29.47 274.354,29.158 273.398,28.846 C272.381,28.514 271.334,28.132 271.334,26.862 C271.334,25.786 272.29,25 273.519,25 C274.506,25 275.2,25.393 275.684,26.007 L275.231,26.359 C274.848,25.815 274.295,25.513 273.519,25.513 C272.623,25.513 271.928,26.067 271.928,26.862 C271.928,27.809 272.814,28.081 273.761,28.393 C274.787,28.735 275.854,29.148 275.854,30.467 C275.854,31.615 274.888,32.551 273.508,32.551 C272.421,32.551 271.606,32.078 271.062,31.343" fill="#9C9B9B"></path>
    </g>
</svg>