<?xml version="1.0" encoding="UTF-8" standalone="no"?>
<svg width="282px" height="294px" viewBox="0 0 282 294" version="1.1" xmlns="http://www.w3.org/2000/svg" xmlns:xlink="http://www.w3.org/1999/xlink" xmlns:sketch="http://www.bohemiancoding.com/sketch/ns">
    <!-- Generator: Sketch 3.2.2 (9983) - http://www.bohemiancoding.com/sketch -->
    <title>Untitled 2</title>
    <desc>Created with Sketch.</desc>
    <defs></defs>
    <g id="Page-1" stroke="none" stroke-width="1" fill="none" fill-rule="evenodd" sketch:type="MSPage">
        <g id="gift85" sketch:type="MSLayerGroup" fill-opacity="0.95" fill="#FFFFFF">
            <g id="Group" sketch:type="MSShapeGroup">
                <g transform="translate(15.000000, 163.000000)" id="Shape">
                    <path d="M109.578,0.218 L14.304,0.218 C6.755,0.218 0.578,6.394 0.578,13.943 L0.578,116.962 C0.578,124.511 6.755,130.687 14.304,130.687 L111.18,130.687 C114.409,130.687 114.409,127.218 114.409,127.218 L114.409,4.882 C114.408,4.882 114.408,0.218 109.578,0.218 L109.578,0.218 Z"></path>
                    <path d="M237.696,0.218 L142.519,0.218 C136.723,0.218 137.591,6.255 137.591,6.255 L137.591,127.332 C137.591,127.332 137.544,130.686 141.031,130.686 L237.695,130.686 C245.244,130.686 251.421,124.51 251.421,116.961 L251.421,13.943 C251.422,6.394 245.245,0.218 237.696,0.218 L237.696,0.218 Z"></path>
                </g>
                <g transform="translate(0.000000, 77.000000)" id="Shape">
                    <path d="M129.408,5.16 C129.408,5.16 129.408,0.509 124.812,0.509 L13.804,0.509 C6.255,0.509 0.078,6.686 0.078,14.234 L0.078,57.079 C0.078,64.628 6.255,70.804 13.804,70.804 L125.188,70.804 C129.408,70.804 129.408,67.144 129.408,67.144 L129.408,5.16 L129.408,5.16 Z"></path>
                    <path d="M268.195,0.509 L156.833,0.509 C152.592,0.509 152.592,4.55 152.592,4.55 L152.592,67.229 C152.592,67.229 152.592,70.804 157.748,70.804 L268.195,70.804 C275.744,70.804 281.921,64.628 281.921,57.079 L281.921,14.234 C281.921,6.686 275.744,0.509 268.195,0.509 L268.195,0.509 Z"></path>
                </g>
                <path d="M82.723,67.354 C76.443,67.354 70.707,66.856 65.677,65.873 C52.901,63.377 44.12,58.519 38.832,51.023 C34.094,44.305 32.644,36.023 34.521,26.406 C37.809,9.58 49.109,0.314 66.337,0.314 C69.983,0.314 73.987,0.735 78.239,1.566 C89.055,3.679 102.889,9.881 115.246,18.156 C136.211,32.197 137.248,40.926 136.204,46.271 C134.669,54.125 127.328,59.737 113.761,63.429 C104.595,65.923 93.282,67.354 82.723,67.354 L82.723,67.354 Z M66.338,22.313 C59.666,22.313 57.373,24.177 56.114,30.624 C55.084,35.895 56.383,37.736 56.809,38.341 C58.593,40.871 63.24,42.981 69.895,44.28 C73.486,44.982 77.923,45.353 82.722,45.353 C93.275,45.353 102.572,43.754 108.741,42.005 C109.19,41.878 109.887,41.347 109.14,40.902 C101.075,34.332 86.32,25.559 74.021,23.156 C71.156,22.598 68.57,22.313 66.338,22.313 L66.338,22.313 Z" id="Shape"></path>
                <path d="M199.594,67.354 C199.594,67.354 199.594,67.354 199.592,67.354 C189.033,67.354 177.721,65.923 168.555,63.429 C154.987,59.738 147.646,54.125 146.112,46.272 C145.068,40.927 146.104,32.198 167.07,18.157 C179.426,9.882 193.26,3.68 204.077,1.567 C208.329,0.736 212.333,0.315 215.977,0.315 C233.209,0.315 244.508,9.582 247.793,26.408 C249.672,36.024 248.223,44.306 243.484,51.024 C238.196,58.521 229.416,63.378 216.638,65.874 C211.609,66.855 205.873,67.354 199.594,67.354 L199.594,67.354 Z M173.352,40.766 C172.637,41.181 172.983,41.836 173.353,41.943 C179.52,43.716 188.914,45.354 199.592,45.354 C204.393,45.354 208.828,44.983 212.42,44.281 C219.074,42.981 223.723,40.872 225.506,38.342 C225.934,37.737 227.233,35.896 226.201,30.625 C224.943,24.178 222.649,22.314 215.976,22.314 C213.744,22.314 211.16,22.598 208.294,23.158 C195.994,25.56 181.417,34.195 173.352,40.766 L173.352,40.766 Z" id="Shape"></path>
            </g>
        </g>
    </g>
</svg>