<svg width="276" height="46" viewBox="0 0 276 46" xmlns="http://www.w3.org/2000/svg"><g fill="none" fill-rule="evenodd"><path d="M23.085-.007C10.378-.007.08 10.295.08 23c0 12.708 10.298 23.007 23.005 23.007 12.707 0 23.008-10.3 23.008-23.008 0-12.71-10.3-23.01-23.008-23.01m.003 34.17c-6.18 0-11.188-5.01-11.188-11.19s5.01-11.19 11.188-11.19c6.177 0 11.19 5.01 11.19 11.18 0 6.18-5.013 11.19-11.19 11.19" fill="#D9D9D9"/><path d="M46.1 22.22l-.012-.25c-.01-.175-.017-.347-.027-.52l-.02-.29c-.01-.158-.02-.315-.04-.472l-.03-.302-.05-.458-.04-.3c-.02-.156-.04-.31-.07-.467l-.04-.27c-.03-.17-.06-.34-.1-.51l-.04-.22c-.05-.24-.1-.49-.16-.73v-.03c-.05-.23-.12-.45-.18-.68l-.06-.23-.14-.48-.08-.26c-.04-.14-.09-.29-.15-.43l-.09-.27c-.05-.14-.11-.28-.16-.42l-.1-.26c-.05-.14-.11-.28-.18-.42l-.1-.25c-.07-.15-.14-.31-.21-.46l-.09-.2c-.1-.21-.21-.43-.32-.64l-.06-.11c-.09-.17-.19-.35-.28-.52l-.14-.23c-.07-.13-.15-.26-.22-.39l-.05-.09c-1.6-2.61-3.7-4.87-6.17-6.66-2.55 2.33-4.16 5.68-4.16 9.42 0 1.85.39 3.61 1.1 5.19.49 1.25.75 2.62.75 4.05 0 6.16-4.99 11.16-11.16 11.16-6.2-.03-11.2-5.03-11.2-11.19 0-1.42.26-2.79.75-4.04.71-1.59 1.09-3.35 1.09-5.2 0-3.73-1.6-7.09-4.16-9.42-2.47 1.78-4.56 4.05-6.16 6.66V11l-.05.092c-.08.128-.15.258-.23.387l-.14.23-.28.52-.06.11c-.11.21-.22.43-.33.64l-.09.2c-.07.15-.14.3-.21.46l-.11.25-.18.42-.1.26c-.05.14-.11.28-.16.42-.03.09-.07.18-.1.27-.05.14-.1.29-.15.44l-.08.26c-.05.16-.1.32-.14.48l-.07.23c-.07.22-.13.45-.184.68l-.01.04c-.06.24-.117.49-.17.73l-.044.22-.1.51-.05.27c-.026.15-.05.31-.073.47-.017.1-.03.2-.04.3l-.06.46-.03.3c-.02.16-.03.32-.04.47-.01.1-.02.2-.026.3l-.03.52-.02.25c-.01.26-.01.51-.01.77 0 .27 0 .53.01.79v.19c.02.52.06 1.05.12 1.56l.02.15c1.27 11.47 11 20.36 22.8 20.36s21.528-8.88 22.86-20.33l.02-.15c.056-.52.096-1.04.117-1.57l.01-.19c.01-.26.02-.52.02-.78 0-.25 0-.51-.01-.77" fill="#E5007E"/><path d="M33.666 19.373c0 .002 0 .004.002.006 0-.01 0-.01-.002-.01" fill="#7FCEF0"/><path d="M36.58 4.34c-.003.006-.008.01-.013.015-2.548 2.326-4.15 5.676-4.15 9.4 0 1.848.387 3.61 1.094 5.193.07.167.1.255.16.425v.006c1.36 2.42 2.15 5.31 2.15 8.29 0 7.88-5.4 14.5-12.71 16.35 1.33.33 2.72.51 4.15.51 2.95 0 5.72-.77 8.14-2.1-3.52 2.23-7.67 3.53-12.13 3.56 11.73-.08 21.37-8.93 22.7-20.32l.02-.15c.06-.52.1-1.04.12-1.57l.01-.19c.01-.26.02-.52.02-.79 0-.26 0-.52-.01-.77l-.01-.25-.03-.52-.03-.29c-.01-.16-.02-.32-.04-.47l-.03-.31-.05-.46-.04-.3-.07-.47-.04-.28c-.03-.17-.06-.34-.1-.51l-.04-.22c-.05-.25-.11-.49-.17-.73l-.01-.03-.18-.69-.06-.23-.15-.48-.09-.27c-.04-.14-.09-.29-.15-.43l-.09-.27c-.05-.15-.11-.29-.16-.43l-.1-.27c-.06-.15-.12-.29-.18-.43l-.11-.25c-.07-.16-.14-.31-.21-.46l-.09-.2c-.1-.22-.21-.44-.32-.65l-.06-.11c-.09-.17-.19-.35-.28-.52l-.14-.24c-.08-.13-.15-.26-.23-.39l-.05-.1V11c-1.59-2.61-3.69-4.876-6.16-6.666" fill="#720077"/><path d="M12.55 19.315c-.01.025-.018.05-.026.074v-.01l.025-.07M9.61 4.34v.002l.003.004c0-.002-.002-.003-.003-.005" fill="#7FCEF0"/><path d="M3.66 10.67c-.072.11-.14.223-.21.335.07-.112.138-.224.21-.335m5.957-6.325c2.555 2.327 4.16 5.68 4.16 9.41 0-3.73-1.605-7.083-4.16-9.41" fill="#6CAFCC"/><path d="M9.612 4.342c-2.364 1.71-4.386 3.86-5.953 6.328-.08.11-.14.223-.21.335V11l-.06.092c-.08.128-.15.258-.23.387l-.14.23c-.1.17-.2.35-.29.52l-.06.11c-.12.21-.22.43-.33.64l-.1.2c-.08.15-.15.3-.22.46l-.11.25c-.01.01-.01.01-.01.02-.06.13-.12.26-.17.4l-.11.26c-.06.14-.11.28-.16.42l-.1.27-.15.44-.09.26-.15.48-.07.23-.18.68-.01.03c-.06.24-.12.48-.17.73l-.04.22-.1.51c-.02.09-.03.18-.05.27-.03.15-.05.31-.07.47-.02.1-.03.19-.04.3l-.06.45-.04.3v.03c-.02.14-.03.29-.04.44l-.03.29-.03.52-.02.25c-.01.25-.01.51-.01.77s0 .52.01.78l.01.19c.02.53.06 1.05.12 1.57l.01.15C1.56 37.07 11.21 45.92 22.93 46c-4.457-.03-8.61-1.335-12.123-3.56 2.413 1.334 5.184 2.096 8.136 2.096 1.43 0 2.82-.178 4.147-.514-7.305-1.85-12.712-8.468-12.712-16.35 0-2.976.784-5.86 2.14-8.287l.025-.076c.043-.14.077-.23.134-.37.707-1.59 1.094-3.35 1.094-5.2 0-3.73-1.6-7.09-4.16-9.41" fill="#720077"/><path d="M35.382 42.445c-2.414 1.333-5.185 2.095-8.136 2.095-1.432 0-2.82-.178-4.15-.514-1.326.336-2.715.514-4.147.514-2.96 0-5.73-.762-8.14-2.095 3.51 2.224 7.66 3.53 12.12 3.56.01.002.03.002.05.002h.26c4.46-.03 8.61-1.338 12.12-3.562" fill="#390070"/><path d="M55.568 24.01c0-5.615 4.176-9.124 8.773-9.124 2.32 0 4.53 1.018 5.83 2.63v-2.28h3.76v17.547h-3.76V30.36c-1.33 1.72-3.54 2.774-5.86 2.774-4.45 0-8.74-3.544-8.74-9.125zm14.81-.035c0-3.124-2.35-5.685-5.545-5.685-3.122 0-5.545 2.49-5.545 5.685 0 3.193 2.423 5.72 5.545 5.72 3.194 0 5.545-2.562 5.545-5.72zm10.492 6.422v2.386h-3.683V7.165h3.72v10.423c1.3-1.65 3.474-2.702 5.825-2.702 4.596 0 8.737 3.51 8.737 9.123 0 5.58-4.25 9.12-8.71 9.12-2.35 0-4.6-1.02-5.9-2.74zm10.88-6.422c0-3.194-2.422-5.685-5.545-5.685-3.157 0-5.51 2.56-5.51 5.685 0 3.158 2.353 5.72 5.51 5.72 3.123 0 5.544-2.527 5.544-5.72zm5.86.035c0-5.615 4.176-9.124 8.776-9.124 2.316 0 4.525 1.018 5.824 2.63v-2.28h3.754v17.547h-3.754V30.36c-1.333 1.72-3.544 2.774-5.86 2.774-4.457 0-8.74-3.544-8.74-9.125zm14.812-.035c0-3.124-2.352-5.685-5.545-5.685-3.123 0-5.545 2.49-5.545 5.685 0 3.193 2.422 5.72 5.545 5.72 3.193 0 5.545-2.562 5.545-5.72zm6.984-8.738h3.72v2.28c1.19-1.613 3.088-2.63 5.405-2.63 4.43 0 7.13 2.876 7.13 7.65v10.246h-3.79v-9.93c0-2.878-1.44-4.703-4.24-4.703-2.52 0-4.45 1.895-4.45 4.982v9.65h-3.75V15.238m18.85 8.842c0-5.158 3.97-9.194 9.12-9.194 5.2 0 9.02 3.755 9.02 8.948v1.474h-14.53c.49 2.702 2.6 4.492 5.65 4.492 2.39 0 4.21-1.263 5.13-3.16l3.09 1.72c-1.54 2.878-4.32 4.774-8.21 4.774-5.54 0-9.26-3.966-9.26-9.054zm3.79-1.965h10.53c-.56-2.527-2.49-3.93-5.19-3.93-2.6 0-4.63 1.614-5.33 3.93zm16.43 1.895c0-5.615 4.18-9.124 8.77-9.124 2.32 0 4.5 1.053 5.83 2.737v-2.386h3.75v17.125c0 5.158-3.22 8.948-8.84 8.948-4.39 0-7.37-2.105-8.7-4.948l3.47-1.65c.88 1.93 2.56 3.16 5.23 3.16 3.19 0 5.12-2.352 5.12-5.37v-2.21c-1.33 1.754-3.58 2.842-5.89 2.842-4.45 0-8.73-3.544-8.73-9.125zm14.81-.035c0-3.124-2.35-5.685-5.54-5.685-3.12 0-5.54 2.49-5.54 5.685 0 3.193 2.42 5.72 5.55 5.72 3.19 0 5.55-2.562 5.55-5.72zm6.21.035c0-5.615 4.18-9.124 8.78-9.124 2.32 0 4.53 1.018 5.83 2.63v-2.28h3.76v17.547h-3.76V30.36c-1.34 1.72-3.55 2.774-5.86 2.774-4.46 0-8.74-3.544-8.74-9.125zm14.81-.035c0-3.124-2.35-5.685-5.54-5.685-3.13 0-5.55 2.49-5.55 5.685 0 3.193 2.42 5.72 5.55 5.72 3.19 0 5.54-2.562 5.54-5.72zm6.99-8.738h3.72v2.28c1.19-1.613 3.09-2.63 5.4-2.63 4.42 0 7.13 2.876 7.13 7.65v10.246h-3.79v-9.93c0-2.878-1.44-4.703-4.25-4.703-2.52 0-4.45 1.895-4.45 4.982v9.65h-3.76V15.238" fill="#941B80"/><path d="M222.41 16.025h2.064c2.215 0 3.806 1.59 3.806 3.675 0 2.095-1.65 3.675-3.785 3.675h-2.085v-7.35zm.584.534v6.27h1.46c1.843 0 3.232-1.35 3.232-3.13s-1.33-3.14-3.252-3.14h-1.44zm6.572-.54h.574v7.35h-.574v-7.35zm1.862 3.67c0-2.09 1.642-3.78 3.837-3.78 1.41 0 2.587.72 3.242 1.85l-.503.29c-.534-.98-1.52-1.61-2.74-1.61-1.902 0-3.242 1.46-3.242 3.23s1.34 3.22 3.202 3.22c1.843 0 2.97-1.23 3.13-2.84h-3.18v-.54h3.766v.15c0 2.04-1.38 3.78-3.716 3.78-2.154 0-3.796-1.69-3.796-3.78m8.778-3.67h.575v7.35h-.57V16zm4.108.53h-2.296V16h5.176v.537h-2.296v6.815h-.584v-6.81m5.082-.535h.625l2.83 7.35h-.61l-.79-2.054h-3.47l-.78 2.055h-.61l2.83-7.35zm-1.218 4.74h3.05l-1.52-3.965-1.53 3.964zm5.697-4.74h.585v6.796h3.494v.555h-4.08v-7.35m-32.236 15.32l.484-.38c.463.68 1.138 1.05 1.963 1.05.987 0 1.763-.61 1.763-1.55 0-1-.916-1.31-1.874-1.62-1.016-.33-2.063-.713-2.063-1.983 0-1.075.96-1.86 2.19-1.86.99 0 1.68.393 2.17 1.007l-.45.355c-.38-.546-.93-.848-1.71-.848-.89 0-1.59.55-1.59 1.35 0 .94.89 1.22 1.84 1.53 1.03.34 2.1.75 2.1 2.07 0 1.14-.97 2.08-2.34 2.08-1.08 0-1.9-.47-2.44-1.21m5.74-2.57c0-2.09 1.7-3.78 3.78-3.78 2.09 0 3.78 1.69 3.78 3.77s-1.69 3.77-3.77 3.77-3.77-1.69-3.77-3.77zm6.95 0c0-1.77-1.38-3.22-3.17-3.22s-3.18 1.45-3.18 3.22 1.39 3.22 3.18 3.22c1.8 0 3.18-1.45 3.18-3.22zm1.78-3.68h.59v6.8h3.5v.55h-4.08V25.1m4.94 4.955V25.1h.59v4.984c0 1.058.83 1.914 1.91 1.914s1.92-.856 1.92-1.923V25.1h.58v4.955c0 1.4-1.08 2.496-2.5 2.496-1.43 0-2.5-1.09-2.5-2.49m8.41-4.42h-2.3v-.54h5.18v.54h-2.29v6.82h-.58v-6.81m4.11-.53h.58v7.35h-.57V25.1zm1.87 3.68c0-2.08 1.69-3.77 3.78-3.77s3.77 1.69 3.77 3.78-1.69 3.78-3.77 3.78-3.77-1.69-3.77-3.77zm6.95 0c0-1.77-1.38-3.22-3.17-3.22s-3.18 1.45-3.18 3.22 1.37 3.2 3.16 3.2 3.17-1.45 3.17-3.22zm1.78-3.67h.65l4.73 6.45V25.1h.58v7.35h-.62l-4.75-6.474v6.475h-.58V25.1m6.91 6.243l.49-.373c.46.675 1.14 1.048 1.96 1.048.99 0 1.76-.615 1.76-1.55 0-.998-.91-1.31-1.87-1.622-1.02-.332-2.06-.714-2.06-1.984 0-1.076.96-1.862 2.19-1.862.98 0 1.68.393 2.16 1.007l-.45.352c-.38-.55-.94-.85-1.71-.85-.9 0-1.59.55-1.59 1.35 0 .94.88 1.22 1.83 1.53 1.03.34 2.09.75 2.09 2.07 0 1.15-.97 2.08-2.35 2.08-1.09 0-1.9-.48-2.44-1.21" fill="#9C9B9B"/></g></svg>